/* XPM */
static char *_7cc78ffbdd94be3a504766353b9a188xhEpWg79TTOT3wKL[] = {
/* columns rows colors chars-per-pixel */
"80 80 251 2 ",
"   c None",
".  c #02122D",
"X  c #021433",
"o  c #05193B",
"O  c #121E37",
"+  c #182339",
"@  c #272B38",
"#  c #383438",
"$  c #343134",
"%  c #7C0506",
"&  c #493B35",
"*  c #554539",
"=  c #4E4339",
"-  c #70502F",
";  c #7E4B1E",
":  c #021A44",
">  c #021C4C",
",  c #061B42",
"<  c #011E53",
"1  c #001F59",
"2  c #0C2148",
"3  c #172748",
"4  c #02225C",
"5  c #082457",
"6  c #142A56",
"7  c #1D3255",
"8  c #373844",
"9  c #2A3550",
"0  c #022463",
"q  c #01266B",
"w  c #0B2B67",
"e  c #17336A",
"r  c #032974",
"t  c #042B78",
"y  c #0D3179",
"u  c #153677",
"i  c #103068",
"p  c #243D70",
"a  c #3C4251",
"s  c #384668",
"d  c #334670",
"f  c #1C427C",
"g  c #484547",
"h  c #504F54",
"j  c #67584A",
"k  c #726752",
"l  c #4B5771",
"z  c #5A6475",
"x  c #6C6C6E",
"c  c #645E62",
"v  c #423F46",
"b  c #890507",
"n  c #930406",
"m  c #9C0A0B",
"M  c #970809",
"N  c #97140E",
"B  c #9B1815",
"V  c #931410",
"C  c #A30B0C",
"Z  c #AB0D0E",
"A  c #A70F10",
"S  c #A41313",
"D  c #AB1414",
"F  c #AB1B1B",
"G  c #A51A18",
"H  c #B31314",
"J  c #B91819",
"K  c #AD100F",
"L  c #992718",
"P  c #9A361B",
"I  c #902C10",
"U  c #A8251A",
"Y  c #A6381C",
"T  c #B42B1D",
"R  c #9A2523",
"E  c #973223",
"W  c #AD2322",
"Q  c #A82A26",
"!  c #B22523",
"~  c #B82927",
"^  c #A83627",
"/  c #B63529",
"(  c #B53832",
")  c #B01E21",
"_  c #C31C1C",
"`  c #C81F1E",
"'  c #CB2323",
"]  c #C72827",
"[  c #D32C2B",
"{  c #D02725",
"}  c #D6312F",
"|  c #D93936",
" . c #C93630",
".. c #DA3735",
"X. c #9C5512",
"o. c #9A5716",
"O. c #914D19",
"+. c #A25C15",
"@. c #A5581B",
"#. c #AA4A1B",
"$. c #AA641A",
"%. c #AE6A1B",
"&. c #A86317",
"*. c #B2691B",
"=. c #B5721D",
"-. c #925227",
";. c #A94625",
":. c #B5472A",
">. c #A85826",
",. c #B6542C",
"<. c #B85736",
"1. c #B14A36",
"2. c #936934",
"3. c #B56728",
"4. c #B87723",
"5. c #BA6738",
"6. c #AD6E2A",
"7. c #9D611F",
"8. c #C55737",
"9. c #D14D37",
"0. c #E1413F",
"q. c #C76E36",
"w. c #8B734D",
"e. c #B96E46",
"r. c #AA6149",
"t. c #DB4945",
"y. c #DC5A4F",
"u. c #E34A46",
"i. c #E6544E",
"p. c #E75B56",
"a. c #D0704B",
"s. c #EA635C",
"d. c #E67459",
"f. c #EC6A64",
"g. c #EB746A",
"h. c #EC7B74",
"j. c #F17971",
"k. c #BC842F",
"l. c #C89034",
"z. c #D4A63E",
"x. c #B0954F",
"c. c #918B6F",
"v. c #B1A266",
"b. c #D38D50",
"n. c #D7AE4E",
"m. c #D89963",
"M. c #ED8977",
"N. c #CFB271",
"B. c #E7B071",
"V. c #E3A955",
"C. c #EBCC73",
"Z. c #E0C469",
"A. c #022D83",
"S. c #083388",
"D. c #163B87",
"F. c #083897",
"G. c #133E94",
"H. c #093DA3",
"J. c #203F83",
"K. c #184398",
"L. c #1D438A",
"P. c #264888",
"I. c #234B98",
"U. c #325695",
"Y. c #0C43AA",
"T. c #1749A7",
"R. c #0D4BB7",
"E. c #124DB5",
"W. c #1653B9",
"Q. c #1550B5",
"!. c #2956A8",
"~. c #255AB5",
"^. c #2E58A6",
"/. c #3669B8",
"(. c #3E72BC",
"). c #3363AF",
"_. c #3D619E",
"`. c #51688F",
"'. c #6C7B8E",
"]. c #4676B9",
"[. c #4D73AD",
"{. c #435A85",
"}. c #155AC5",
"|. c #0F56C5",
" X c #1A64CD",
".X c #1B6AD3",
"XX c #1F72D9",
"oX c #3A76C8",
"OX c #2479D9",
"+X c #2E6FC9",
"@X c #257EE0",
"#X c #437CC7",
"$X c #758893",
"%X c #5787B7",
"&X c #6F90B1",
"*X c #7AA4B0",
"=X c #3887D9",
"-X c #2B88E3",
";X c #3597E8",
":X c #3CA2ED",
">X c #4985CB",
",X c #478AD4",
"<X c #4B95DB",
"1X c #5599DA",
"2X c #548BC9",
"3X c #73B1D3",
"4X c #4B9BE2",
"5X c #45A7EC",
"6X c #5AA6E5",
"7X c #57B9F3",
"8X c #4EB1F0",
"9X c #69B6EB",
"0X c #68B4EA",
"qX c #629DCF",
"wX c #68C4F5",
"eX c #77C8F3",
"rX c #5EC2F2",
"tX c #8D958E",
"yX c #99A596",
"uX c #93AAB0",
"iX c #AEB8AB",
"pX c #9BA69F",
"aX c #F38B84",
"sX c #F4958B",
"dX c #F59C95",
"fX c #ED9489",
"gX c #F5A69C",
"hX c #F3B79A",
"jX c #EFB08C",
"kX c #F7ABA5",
"lX c #F7B4AA",
"zX c #FAB9B4",
"xX c #B4CAB3",
"cX c #F1D393",
"vX c #F7E599",
"bX c #F3E293",
"nX c #D0D5AF",
"mX c #F8C5B8",
"MX c #F4D2AA",
"NX c #F8E8A5",
"BX c #EAE4AD",
"VX c #D5D093",
"CX c #90B9C5",
"ZX c #AFBEC2",
"AX c #91C8D5",
"SX c #ACD1CC",
"DX c #88D3F9",
"FX c #8FCFEC",
"GX c #A3D7E5",
"HX c #F9F0C6",
"JX c #C7DBC6",
/* pixels */
"                                                                    D H J J _ _ ] T ' ] ] ]                                                                     ",
"                                                            D D H H J J J J J _ _ ` ' ' ] [ } } } |                                                             ",
"                                                    m A Z K K Z K D D D H F J ) J J J ' ] ` ]  .[ | | u.0.                                                      ",
"                                                m C Z C C m C N D D H J J T ` `  .9. .|  . .} ]  . .| | 0.u.i.y.                                                ",
"                                            M C C m m M m S D T T ,.T 8.9.8.] ` q.q.q.9.0.q.d.0.t.9.0.9.9.| t.p.p.p.                                            ",
"                                        n C M M n n m D U ;.T ,.:.:.:.3.,.8.9.] q.q.9.q.q.b.q.b.a.d.y.b.d.y.t.t.p.f.f.f.                                        ",
"                                    b M m n b M m U Y ;.,.:.;.;.T T T _ :.,.,.8.} 9.q.d.i.9.0.l.a.b.y.i.d.b.M.s.y.y.f.g.j.h.                                    ",
"                                  n m n b b I U C ;.;.;.:.T T T #.q.9.Y l.l.l.l.9.q.z.z.z.b.u.z.d.d.y.i.u.p.d.s.g.f.y.f.g.M.aX                                  ",
"                                n n b b V P P U C U Y D T H / *.4.l.*.{ ,.*.9.9.` 9.4.l.b.0.q.n.V.Z.M.i.p.p.p.f.B.fXM.j.g.h.fXfX                                ",
"                            b n b b b V P B C C Z C U #.*.:.#.*.,.T J _ _ _ ` ` ` ` { { } } 0.i.V.V.V.b.B.B.j.M.B.jXB.fXM.M.h.sXdXdX                            ",
"                          b n b b b I P G C C C C P %.*.*.Y H H H H _ H _ _ ` ` { { { } } ....0.0.0.0.d.C.C.cXB.g.M.cXjXjXfXfXfXdXkXkX                          ",
"                        b b b b b L L ;.P m N Y U X.@.#.J K Z H H H H _ _ _ _ ` { { { } } ......0.0.i.i.s.B.cXB.M.fXfXjXgXhXkXfXfXgXkXkX                        ",
"                      b b b % b I -.^ L N N #.+.@.S C A C Z Z Z H H Z _ _ _ ` ` { { [ } } ....0.0.0.i.p.p.s.j.j.jXNXMXgXhXMXhXlXgXdXkXzXlX                      ",
"                    b b b % b I ;.L L M N X.+.X.U C C C Z Z Z Z Z _ _ Z _ _ ` ` ` { { } } ..0.0.0.i.i.p.s.f.f.j.M.cXNXMXgXhXMXmXlXzXgXkXlXkX                    ",
"                  b b b b b I P P N M V V X.#.N M C C C Z Z Z Z Z H _ _ _ _ _ ` { { { } ....0.0.0.i.i.p.s.f.j.j.M.fXcXBXkXkXlXMXmXmXkXgXgXkXgX                  ",
"                  n b % b P E L N b P @.P M m M C C C C Z Z Z Z H H Z _ Z _ _ ` ` { } } } ..0.0.u.i.i.s.f.f.j.M.M.aXdXgXhXBXmXlXBXmXmXgXfXdXgX                  ",
"                n b b b P ;.P N V I X.+.L M M M M C C C C C Z Z Z Z H _ J _ ` ` ' [ [ [ ....0.0.i.i.p.s.f.j.j.aXaXsXdXgXkXHXHXmXmXMXlXkXgXaXfXsX                ",
"              n n b b M ;.-.B n V X.+.I M n M M M C C C C C Z Z H H H H J _ _ ` ' [ [ ....0.0.u.i.i.s.s.f.j.aXaXaXdXgXkXkXmXHXHXmXlXkXkXgXfXM.fXaX              ",
"            M M b b m M N B M M I I I n n n M C C M M C C C C Z Z Z H _ _ _ _ ` ' [ [ } ..0.0.u.i.p.s.f.j.j.aXaXdXdXkXkXlXzXmXHXlXgXgXMXMXfXM.h.M.cX            ",
"            n n b N P L N n V O.P b n n n n n n n n C M C C C Z Z H H H J J _ ` ' ' [ [ ..0.0.u.i.s.f.f.j.aXaXdXdXkXkXkXzXzXkXkXhXMXgXMXhXjXfXjXvXvX            ",
"          M M b b B Y Y N M O.&.#.n n b n n n n n M M C M C C Z Z Z Z _ J J _ ` ' { [ } ..0.0.p.p.s.f.j.j.aXsXdXgXkXkXzXlXkXkXdXcXNXmXsXVXbXbXbXNXnXAX          ",
"          m M b N ;.>.B M L +.@.N n n n n b n n n n M C C C C C Z Z Z Z J _ _ ` ' [ } ..0.0.u.u.s.s.j.j.aXsXdXgXkXlXzXzXkXkXkXdXgXMXNXhXcXNXvXBXAXwXwX          ",
"        m m b B ^ Y U C m P $.U m M M M M n n L N L C M M C C A Z H _ Z J _ ` ' [ [ ....0.u.u.p.s.j.j.aXsXdXgXkXzXzXzXkXkXkXdXdXsXcXNXNXvXNXBXSXwXrXrXwX        ",
"        S V V U ;.;.G C L Y U m m m m m B L I >.P >.U L G C A K Z Z Z _ J _ ` ' ' [ ....t.t.p.f.f.j.j.sXdXgXkXzXzXzXkXkXkXdXdXdXjXvXNXvXJXAXAXSXeX0XrXrX        ",
"      G G B G ;.( W D U $.3.W A A A m S L *.+.&.&.&.@.@.Q D D D H H T T J _ ] ] ] | t.t.u.p.p.f.j.aXsXdXgXzXzXzXzXzXlXkXgXdXgXcXNXNXBXbXJXeXSXnXAXwX7XrXrX      ",
"      ) G B W :.,.! F ;.4.3.1.F D F W ;.+.&.*.&.&.+.+.$.>.;.U F F J ,./ ] ] ]  . .t.t.t.p.f.h.h.aXdXdXkXzXzXmXzXzXkXkXgXgXcXNXNXBXJXGXnXvXSXAXSXxXeX9XrXwX      ",
"    ! ~ W W 1.:.( ) ^ %.4.:.3.:.W F W ;.%.%.*.&.$.&.$.&.$.;.) W ! ^ 5. .] (  .|  .t.t.p.s.f.h.aXsXdXzXzXzXzXmXzXzXkXkXhXNXNXNXJXGXDXDXSXC.nXFXxXxXAXwX9XeXwX    ",
"    ~ ~ Q / <.8. .~ / *.<.~ >.5.( Q ;.>.*.%.&.&.&.$.&.+.$.>.1.W Q $.8.~ ]  . .| t.t.y.p.f.h.aXdXkXkXzXzXmXmXzXlXkXkXMXNXNXBXGXGXDXDXDXDXVXBXFXAXAXSXCX0XwXwX    ",
"    ~ ~ Q ( q.1.~ ~ / :./ ! :.*.5.( #.%.%.&.&.&.$.$.&.o.&.@.^ ^ >.>.( ] ~  .| t.t.t.p.f.g.aXfXdXkXzXzXzXmXzXzXkXcXNXNXBXJXGXDXDXDXeXDXeXeXxXeXeXwXAXCX9XrXrX    ",
"    ~ W ! 1.5. .~ / 4.8.~ ! ! $.k.5.,.&.%.%.&.&.&.*.$.&.+.>.;.X.+.1.~ ) ~ ] ~  .| t.y.s.g.h.dXdXkXzXmXzXlXkXcXMXNXvXJXGXDXDXDXDXeXrXeXeXrXVXxXeXrX9XiX6X5XrX    ",
"  ! J F ^ <.<./ _ ;.4.8._ ) ) ^ =.=.=.=.*.%.&.%.*.%.&.$.&.+.o.o.#.U ) D ) _ ] ] | t.t.s.f.aXsXkXzXzXzXzXhXMXNXvXnXGXeXeXeXeXwX7XrXrXrXrX3XN.Z.rX8XrXuXqX4X5X8X  ",
"  ) G G F / :._ F >.l.:.H H J H #.=.q.=.=.*.%.%.%.&.%.$.&.o.&.X.L m S A D J ) ] } | t.p.f.h.fXkXzXkXkXlXvXvXBXSXFXwXrXwX7X7X7X7X8X8X5X8X8XyXZ.CX:X:XqX:X;X;X5X  ",
"  F G B ~ F H J H 3.4.~ H H H D H Y =.=.4.=.=.*.%.%.%.%.%.+.#.L b M M m S S J _ { | t.p.g.aXdXkXkXhXvXvXbXxXeXrXrXrX7X7X8X8X:X8X:X:X:X:X:X*XZ.uX5X<XqX,X=X-X;X  ",
"  F S Y :.J F H H #.:.H D D K D K D T $.4.4.4.4.=.4.=.3.7.#.V n b b b b M S D ) { | u.s.h.sXkXhXMXNXNXnXAXrXrXrX8X5X:X:X:X:X:X:X;X;X:X;X;X=Xc.qX;X*XyX%XOXOX-X  ",
"G D m ^ :.D H F U ,./ D D D A D K D S S T #.*.*.3.*.@.#.;.P P P I V % b n N Q :.8.a.s.f.sXkXMXNXvXbXxX0X8X:X:X:X:X:X;X;X;X;X;X-X-X-X-X-X-X-X$X*X;X%XtX%XOXOXOXOX",
"S D B ^ / H H H ;.l.8.D K D D D A D K A C K S G B S m V >.k.>.P >.>.I % b L $.:.8.b.g.M.MXNXNXbXxXxXVXuX5X:X:X-X;X;X;X-X-X-X-X-X-X@X-X-X-XOXv.n.=X%X$X*X.X XOX.X",
"G D B ^ Q F H D >.l.,.K D D D D D A D S S S C C A N m m ;.k.;.b O.6.;.% % O.>.W ] a.M.MXNXvXbXuX6X:XpXZ.CX;X-X-X-X-X-X-X-XXX-XXXXXXXOXXXXXXXv.n.%X].c.%X.X X.X X",
"G D B ^ :.:.F D 3.z.,.D D D D D D S D A D S S S S A N m >.l.;.b O.k.>.% % O.$.<.8.B.NXNXVXVXZ.qX;X-X%Xn.N.=X-X-XXXXXXXXX.XXX.XXXXXXXXX.X.X Xc.n.%X).$X$X XQ. X X",
"G S N ^ 5.,.F D :.l./ D D D F D D D D S D S S S S S S S >.l.,.^ 4.q.U b % I o.4.n.vXbXyXqXN.N.=XOXXX+Xx.n.%X-X.X.X.X.X.X.X.X.X.X.X X X X X X$Xx.].).$X_.~.Q. X}.",
"G F D ^ 1.:.F F U :.F D F F S G F F G G G F D D F S S G >.n.5.4.z.<.B m V P k.n.n.Z.c.=X+Xx.n.oX X.X/.x.x.].|. X X}. X X|.|. X|.}. X|. X}.|.~.'. X).$X'.~.Q.|.W.",
"G G G :.e.<.F F ,.b.^ F F D F F F G F F F F F D F D F F 5.n.<.:.n.n.T T a.Z.bXVXw.6.w. X~.r.x./.|.|.).k.x.~.|.}.|.|. XW.|.|.|.}.}.|.|.W.}.}.`.c./.~.[.`.~.E.W.Q.",
"B G G ;.5.Q F G 6.n.<.D F F F F F F F F F F F F ) F F ) 5.n.a.~ b.Z.m.B.cXMXnX,XY.; j Y.G.2.6.).R.T.x l.'.|.R.R.R.!.W.R.R.W.R.W.|.}.E.|.}.H.w.z.[.^.'.x !.Y.R.E.",
"G G B ;.e.<.F G 5.n.<.F F F F F U F F F ) ) ) ) ! ! ! ~ b.Z.a./ b.C.bXvXBXHXSX%Xz 2.d S.p -.3.`.l k 2.x T.K.R.R.T.x _.R.R.!.R.R.|.H.E.|.H.E.r.l._.I.[.U.Y.Y.E.Y.",
"B G R Q <.1.G F 3.n.a.F F U W F ) ) T F W ! ) T ! ! ~ / 8.q.a.V.C.bXBXSXFX0XuX'.`.L.A.t e s s p l P.L.H.H.c x T.d k.'.T.l k T.R.R.H.H.H.R.T.w.b._.U.w.`.Y.Y.Y.Y.",
"R B B E <.<.Q F ^ l.( F W W W ) ) W ) ! W T ! ~ ~ ~ / ~  .d.B.MXNXxXFXDX0X4X@X}.H.F.A.A.A.A.A.A.S.F.F.F.F.h 4.x 2.q.w.k 6.w.T.Y.H.H.H.H.H.H.c x T.l `.I.Y.Y.Y.Y.",
"B W G Q 5.5.Q G U 5.1.W W W W W Q ! ! ! ~ ~ ~ ~ ~ (  .a.B.vXvXnXAX9X9X9X6X@X+XW.H.F.A.A.r r r A.A.A.D.D.S.h 6.4.=.4.4.4.k.k K.K.I.H.H.H.H.G.z U.F.z x U.Y.F.F.F.",
"  R B R 5.b.( Q ^ b.m.( W W ! ! ! ~ ~ Q ~ ~ / / ( t.b.cXbXBXCX0X9XDX0X6X4XoX.XW.Y.F.S.A.r q q r r A.9 2.2.2.&.%.%.=.=.=.4.6.w.2.c F.F.H.H.l k.z F.P.G.G.F.Y.F.  ",
"  G U E 5.e.^ U Q l.Z.1.W Q Q Q ~ Q Q ~ ( ~ ( 9.a.C.vXBXxX3X6X0X9X9X6X4X@X+X}.W.H.H.S.A.r r q q q r t - +.&.&.&.%.%.%.%.=.=.q.2.J.S.F.S.F.j 4.z G.P.L.F.F.F.F.  ",
"  R R B R Q Q Q W e.Z.a.Q Q Q ~ Q ~ ( ~ ( ( a.B.cXvXnX3X1X6X0XFX0X6X4X,X+X+XW.Q.H.F.S.A.r q q q q q q 7 X.+.+.+.$.$.$.*.*.*.%.l S.S.S.S.u 2.3.J.p w.x D.F.F.S.  ",
"  R R W R ^ e.Q R <.V.a.Q Q Q Q ( Q ( ( t.m.cXbXVXCX1X6X6X0X0X0X6X4X,XOX+X~.W.T.F.F.S.A.r r q q 0 6 v E X.X.+.+.+.+.&.&.&.%.3.2.c P.S.A.u 2.w.D.l j l S.S.S.A.  ",
"    R G R e.a.( Q Q <.5.Q Q ( ( Q ( ( b.jXbXbXxXqX4X1X6X6X0X0X6X4X<X#X+X XW.Q.H.F.F.A.A.A.r q q 1 8 ; X.X.X.X.X.+.+.+.&.&.$.%.%.>.h y A.u h D.y j c p A.S.A.y   ",
"    R Q R E b.r.R Q <.N.a.( Q Q ( a.B.bXbXxX3X,X<X1X1X0X0X0X1X4X,XoX+X+X~.Q.T.T.G.S.A.A.r q q 0 0 0 6 # O.X.X.X.+.X.+.+.&.&.7.j e r t e 2.k y e s p y A.A.y     ",
"    R R R E e.r.^ R r.C.jX1.Q 1.m.cXbXnXCX#X4X#X1X6XqX0X6X6X4X,X@X+X+X~.~.T.H.H.F.S.A.t r q w 0 0 0 1 # O.@.X.X.X.X.+.+.+.&.7.c t q r g @.w.y h c s r t t r     ",
"      R Q ^ r.b.1.Q ^ N.VXa.a.cXMXzXiX2X#X4X#X1X1X6X6X6X1X1X,X#X#X+X~.~.Q.T.G.G.D.S.A.t r q q 0 0 1 9 O.o.X.X.X.X.X.X.X.o.+.&.7.h q w - >.a r 9 2.p t t q q     ",
"      R E E e.r.r.Q R e.cXcXbXBXnXuX#X4X<X#X1X1X1X6X1X1X,X,X#X+X+X~.~.W.T.T.G.S.D.A.y r q q w 0 0 1 8 & # * X.X.X.X.X.X.@.- 8 g g q 7 $.-.i a c a w w q q       ",
"      R R Q 1.e.x.1.1.m.bXvXVXuX#X@X#X#X#X1X#X1X1X1X1X>X#X#XoX+X/.~.~.Q.T.G.G.D.S.y y r q q 0 4 1 1 1 1 1 & X.O.O.X.O.O.+.j 4 1 1 0 9 g 9 6 g j 9 r t q 1       ",
"        R Q ^ r.a.fXVXbXbXbXVX#X+X#X#X#X<X<X1X1X6X#X#X#X#XoX+X/.~.~.!.T.K.G.F.D.S.y w q q 0 0 0 4 1 < < > * E 3 & X.* 9 ; - 5 4 1 & - 7 0 v j 9 5 4 0 4         ",
"        ; R ^ e.N.bXcXnX&XiXNXiX#X#X#X#X1X#X1X1X#X#X#XoX+X/.~.~.~.T.I.K.G.G.S.S.y r w r w 0 0 1 4 1 < < > # 2 > @ O.8 < , # 5 < 8 O.7.9 < 9 g 8 4 q 0 4         ",
"          1.m.cXNXbXxX[.oX[.MXBXqX#X#X#X#X1X#X1X#X#XoX/./.~.~.T.!.T.K.K.D.S.D.y y w w 0 0 0 0 5 1 < < < > > > > 2 # 2 > > > > 2 - +.& < 1 2 a 5 1 0 <           ",
"          VXbXcXiXpXpX%X].+XuXnXuX#X2X2X1X#X#X#X#X#X/./.~.!.!.!.K.K.K.G.D.D.y y y r w w 0 1 1 1 < < > < > > > > : : : : : : > 3 O.- 3 > > 8 v < 0 < <           ",
"            iX&X#X[.tXpX[./.#X[.CXZX2X#X#X#X#X(.oX/./.~.!.!.T.I.K.G.D.D.D.y y w w w 0 w 4 4 4 < < < > > > > > > : : : : o o $ & $ 2 > > 3 * 6 1 < <             ",
"            `.).#X#XuXuX#X]./.#XiXHXSX#X#X(././././.^.!.!.!.I.K.J.D.D.D.S.y y w w w 0 4 4 5 < < < < < > > > : : : : : : : & O.- 2 , , , & 3 > 1 : :             ",
"              ^.~.#X/.^././.#X/.#XmXHXZX]././.).^.!.!.!.I.K.I.K.G.D.D.y y y w w w 5 4 5 5 < < < > > > > > : : : : : o o $ O.O.# 2 & g , 3 > 1 : :               ",
"                ^./.#XuXuX]./.].#X2XmXmX[././.^.!.!.!.I.I.K.J.D.D.J.D.y e u w w w w 4 4 5 < 5 > < > > > : : : : o : o o ; O.& O $ * * 3 : > : o                 ",
"                  ^.].2XuXuX#X[.]./.[.[.pXiX[.).!.I.I.I.L.K.D.D.f y y y i i w 5 5 w 5 5 4 < > > > > : : : : o : X + * * $ @ + $ * * + o > : o X                 ",
"                  ^.).].#XuXuX[.uX[.).^.pXNXMX$XU.I.I.J.J.J.J.u u y i i w w w w 5 5 5 5 2 > > > > : : : : : : o $ ; X.- o O $ * = @ o > > o X                   ",
"                    ^.).].uX&XuXiX&X[._._.yXMXcX`.P.P.J.J.J.u u u i i i i w 5 6 5 5 5 2 5 > 2 2 : : : : : : : + ; X.- + + & # & @ o : : X o                     ",
"                      _._.#X#X&X'.iXtX_.U.I.$XtX'.yXtX{.u u y e i i w i w 5 5 5 5 5 5 2 2 : : 2 , : o : + & - & ; = + @ @ * # + X o : X X                       ",
"                        _.^.[.].[.pXtXpX'.I.L.J.d VXC.VX$Xu e e i i 6 5 6 6 6 2 > > 2 2 > : 2 o o 2 o = -.%.7.@ X + $ # * $ O X : : X X                         ",
"                          U.I.[.[.^.tXpX'.'.`.G.f l v.Z.m.z c.x l e 6 i 5 5 5 2 2 > 2 2 2 : 2 @ * * # o.&.; # + $ = - # $ O o > : . X                           ",
"                            I.P.^.[._.`.'.c.tXtXl f e s s h V.Z.n.v.a h k h a 7 3 a g * a 8 2.=.k.=.v @ $ + o + = = @ + X , > o . .                             ",
"                                J.J.^._.d `.r.jXl d z d e 7 h c.v.x.h x.n.n.x.k j l.l.l.2.g 2.7.- & 2 + @ - = o O $ X : > : X . .                               ",
"                                  f f P.^.U.l z e d c.x x s 7 6 7 7 6 h w.w.x.8 8 2.x.- = o + @ o 8 # = * - - O X o > > o X .                                   ",
"                                    p p f P.^.P.f s c c c.j x h h a 9 7 3 3 3 2 2 o X o @ v v j # - * # = @ + o 5 2 : X . .                                     ",
"                                        7 i e P.P.f f p s k k k k h w.k k j j + o o o o 8 k = - j - 8 + o o > 5 : o . .                                         ",
"                                            i 7 i f f P.f 7 s a a h k k k k j + # a 8 = # - @ $ + o o 2 > > : X . .                                             ",
"                                                7 6 6 i f f f i i e 7 7 2 a a o = g = g + 2 2 5 2 5 5 2 o . . .                                                 ",
"                                                      7 + 2 6 6 i i i i i i 5 i w w 5 5 5 5 4 2 2 o X X . .                                                     ",
"                                                            o o O 2 2 o 2 2 2 2 5 O 2 o O o X X . X                                                             ",
"                                                                    o o o O X O X X X X . X                                                                     "
};
