/* XPM */
static char *_97872ccf1e946b7b26d838ab4212fd0t1thdpRhFBSqZeei[] = {
/* columns rows colors chars-per-pixel */
"32 32 224 2 ",
"   c None",
".  c #011435",
"X  c #00163C",
"o  c #041A3E",
"O  c #0B1E3E",
"+  c #17243D",
"@  c #282D3A",
"#  c #383439",
"$  c #2F2F39",
"%  c #463937",
"&  c #513B2D",
"*  c #4F433A",
"=  c #684628",
"-  c #6A5537",
";  c #031A44",
":  c #021C4B",
">  c #001743",
",  c #021E52",
"<  c #001F5A",
"1  c #09224D",
"2  c #0A2047",
"3  c #132444",
"4  c #1B2A49",
"5  c #04225D",
"6  c #082357",
"7  c #162B55",
"8  c #2C364A",
"9  c #2C364F",
"0  c #052767",
"q  c #163469",
"w  c #022C7E",
"e  c #052B73",
"r  c #0C307A",
"t  c #123479",
"y  c #243B64",
"u  c #473E43",
"i  c #394458",
"p  c #374369",
"a  c #28467C",
"s  c #3E5370",
"d  c #4E4E52",
"f  c #635A47",
"g  c #6B5546",
"h  c #796D5F",
"j  c #6F6953",
"k  c #48566B",
"l  c #495577",
"z  c #555C6B",
"x  c #6B6769",
"c  c #6D7275",
"v  c #8C0D0A",
"b  c #8B0406",
"n  c #94090A",
"m  c #9C0A0B",
"M  c #960406",
"N  c #9B1C12",
"B  c #9A1C17",
"V  c #911A0C",
"C  c #A40C0C",
"Z  c #AC0D0E",
"A  c #AD0F10",
"S  c #A41413",
"D  c #AA1414",
"F  c #AC1C1B",
"G  c #A41A14",
"H  c #B71717",
"J  c #B10F10",
"K  c #992915",
"L  c #9B3413",
"P  c #A7241A",
"I  c #B1281C",
"U  c #A83819",
"Y  c #B3321E",
"T  c #992724",
"R  c #AC2624",
"E  c #B22B25",
"W  c #B72825",
"Q  c #AC3322",
"!  c #AC3B2A",
"~  c #B53826",
"^  c #B83C34",
"/  c #C51D1E",
"(  c #CF2626",
")  c #C52624",
"_  c #D5302F",
"`  c #CB3333",
"'  c #D93735",
"]  c #CC2C2A",
"[  c #9D5512",
"{  c #964919",
"}  c #A3451D",
"|  c #B2471D",
" . c #A35918",
".. c #B35C1C",
"X. c #AB631A",
"o. c #AA6518",
"O. c #B26C1C",
"+. c #B5721F",
"@. c #8E5B2A",
"#. c #A94724",
"$. c #B64726",
"%. c #AD5323",
"&. c #B65728",
"*. c #B74D34",
"=. c #B95934",
"-. c #AA4837",
";. c #B67128",
":. c #B6632D",
">. c #9B6F3A",
",. c #C8462A",
"<. c #CD4433",
"1. c #D7443B",
"2. c #C95C33",
"3. c #E1423E",
"4. c #C5703B",
"5. c #D7633A",
"6. c #80795C",
"7. c #DA4744",
"8. c #E44B45",
"9. c #E75954",
"0. c #DB6748",
"q. c #C47048",
"w. c #D1724C",
"e. c #E66357",
"r. c #E47A59",
"t. c #EB6964",
"y. c #EB786A",
"u. c #EF7770",
"i. c #95947B",
"p. c #CF8D56",
"a. c #CF9268",
"s. c #ED8A78",
"d. c #DAA66C",
"f. c #D7AE7D",
"g. c #EDA277",
"h. c #E19353",
"j. c #0B3587",
"k. c #163C89",
"l. c #093A99",
"z. c #19459B",
"x. c #284889",
"c. c #254F9E",
"v. c #37568E",
"b. c #0C44AB",
"n. c #1352BC",
"m. c #1B55B6",
"M. c #164CAC",
"N. c #325CA3",
"B. c #295AB1",
"V. c #2654AA",
"C. c #3A64AA",
"Z. c #2F65BB",
"A. c #396CB7",
"S. c #4A5F88",
"D. c #576A88",
"F. c #47689C",
"G. c #647C93",
"H. c #4371B6",
"J. c #5479AC",
"K. c #1965CF",
"L. c #1E63C6",
"P. c #1968D3",
"I. c #2564C2",
"U. c #3B7ACA",
"Y. c #247DDD",
"T. c #2979D4",
"R. c #367CD2",
"E. c #1456C2",
"W. c #4277C2",
"Q. c #7A899B",
"!. c #5781B5",
"~. c #7898AD",
"^. c #6B8BB3",
"/. c #6697BD",
"(. c #6289A8",
"). c #3E86CB",
"_. c #389BE9",
"`. c #2B88E3",
"'. c #4984CC",
"]. c #4898D9",
"[. c #5498DB",
"{. c #518ECF",
"}. c #59A5DE",
"|. c #76AFCD",
" X c #4C9CE5",
".X c #57A0E2",
"XX c #4DB0F2",
"oX c #67B6E7",
"OX c #64BFF4",
"+X c #6BB3E8",
"@X c #6EC5F2",
"#X c #8A9483",
"$X c #88949B",
"%X c #9CA283",
"&X c #839DB7",
"*X c #899FAD",
"=X c #90ACB1",
"-X c #BFBDA1",
";X c #B3B69B",
":X c #F3938C",
">X c #F2968E",
",X c #D0B78E",
"<X c #F4A997",
"1X c #F5B896",
"2X c #F0A989",
"3X c #F7AAA5",
"4X c #F7B7A8",
"5X c #F9BAB4",
"6X c #B5C9B7",
"7X c #F4CD9C",
"8X c #DBD6A4",
"9X c #CED8B4",
"0X c #F6C8A5",
"qX c #E8DBA7",
"wX c #F6CEB0",
"eX c #CDC295",
"rX c #88B6CA",
"tX c #91C9D6",
"yX c #A2CBCB",
"uX c #A6D2CE",
"iX c #A8D7DB",
"pX c #A8D9E0",
"aX c #87D2F8",
"sX c #CDE0C7",
/* pixels */
"                        A D H / / ) ] _                         ",
"                  m m S D I Y I ,.` <.<.1.1.9.                  ",
"                n m P U $.,.&.2.5.4.0.w.e.e.e.e.                ",
"            b v N C U | | | ,.,.,.5.5.h.r.r.s.s.s.:X            ",
"          b v K S N U U J H / / ( _ ' 3.e.g.g.1X<X<X3X          ",
"        b v K K L L C Z J J H / ( ' 3.8.9.y.s.0X4X4X3X<X        ",
"      b v K V L N C C C J J / / ( _ 3.8.e.u.s.<XwXwX4X<X:X      ",
"      v V K V K M M M C J J H / ( ' 3.8.t.s.>X3X5XwX4X<X2X      ",
"    n B K L L M M n m m C J H / ( ' 8.e.u.:X3X4X3X<X0X7X8XtX    ",
"  S B Q P U S m K } L P S H H ) _ 8.9.u.:X3X5X3X<X1XqXsXuX@X@X  ",
"  F ~ ~ $.&.E U X.o.o.%.R ! ) ` ' 9.u.:X3X5X4X7XqXsXiX9XuXtXOX  ",
"  E *.^ $.~ &.&.o.o.o. .#.$.W ` 7.t.:X3X5X5XqX8XpXaX@XyXtX|.oX  ",
"F R ~ ~ &.H | O.+.o.O.o.{ B F W ' e.:X3X7X8XuX@XOXXXXX|.=X}.]._.",
"S I H Y Y D D U ..O.X. .K v n R 7.y.<XqX6XoXXXXX_._._.].~.}.).`.",
"S Q F &.Y D D D D G N | } } v #.0.1X8XrX=X].`.`.`.`.`.I.i.(.A.L.",
"S ! Q $.I D D D D S S &.:.%.V ;.d.=X%XT.#X!.K.K.K.L.K.m.(.!.C.E.",
"B $.Q :.E F F F F F F q.4.p.d.;Xh s h N.x N.m.m.n.n.n.B.c F.N.n.",
"B ! Q =.^ F F R R R E q.d.9XyX{.x.t p a x.v.x x S.b.b.l.x S.c.b.",
"F -.*.*.*.R R W W ` r.,XyX+X XL.l.w w w d @.O.+.>.l l.x.l x.l.l.",
"B T ! *.q.R E W 0.,X-X|.+X}.R.m.l.j.0 0 * [ o.o.O.g k.k z l k.j.",
"  R =.! q.! -.a.;X|..X.X.XR.I.b.j.j.0 5 &  . . .X.g q d y p j.  ",
"  T -.-.p.a.,XrX{.]..X[.'.I.M.z.j.e 0 0 # { [  .@.u y g d y e   ",
"  T -.a.2X8X/.'.{.[.{.W.Z.B.z.k.w 0 0 < 6 % = = & 7 u 9 9 0 5   ",
"    a.,X&X&XrXW.'.W.W.Z.B.z.l.r e 0 < , , : ; 3 : # % 4 9 <     ",
"      J.^.H.&XrX).A.B.V.z.z.t t 0 5 5 6 : : > X $ % 4 4 , :     ",
"      Z.!.!.W.=X^.C.c.x.x.t e q 6 5 : : : > o @ & % # ; ;       ",
"        H.^.&XJ.$X$Xv.a r q 0 0 6 6 1 > > + & & @ # O X         ",
"          F.J.Q.D.S.i.c k q 7 6 1 2 3 @ % = # # @ . .           ",
"            v.v.D.c k k 6.j j f f - * - # % @ + o .             ",
"                a a s z d d - i @ # * * # @ o o .               ",
"                  q q y y i i 8 8 8 4 3 ; X .                   ",
"                        1 6 1 2 2 2 o .                         "
};
